<?xml version="1.0" encoding="UTF-8" standalone="no"?>
<!-- Created with Inkscape (http://www.inkscape.org/) -->

<svg
   xmlns:osb="http://www.openswatchbook.org/uri/2009/osb"
   xmlns:dc="http://purl.org/dc/elements/1.1/"
   xmlns:cc="http://creativecommons.org/ns#"
   xmlns:rdf="http://www.w3.org/1999/02/22-rdf-syntax-ns#"
   xmlns:svg="http://www.w3.org/2000/svg"
   xmlns="http://www.w3.org/2000/svg"
   xmlns:sodipodi="http://sodipodi.sourceforge.net/DTD/sodipodi-0.dtd"
   xmlns:inkscape="http://www.inkscape.org/namespaces/inkscape"
   version="1.1"
   id="svg869"
   width="5470.0684"
   height="5470.0684"
   viewBox="0 0 5470.0684 5470.0684"
   sodipodi:docname="Solarpunk_Flag_Vectorized_Version_No_Bg.svg"
   inkscape:version="0.92.5 (2060ec1f9f, 2020-04-08)">
  <metadata
     id="metadata875">
    <rdf:RDF>
      <cc:Work
         rdf:about="">
        <dc:format>image/svg+xml</dc:format>
        <dc:type
           rdf:resource="http://purl.org/dc/dcmitype/StillImage" />
        <dc:title></dc:title>
      </cc:Work>
    </rdf:RDF>
  </metadata>
  <defs
     id="defs873">
    <inkscape:perspective
       sodipodi:type="inkscape:persp3d"
       inkscape:vp_x="0 : 2966.3999 : 1"
       inkscape:vp_y="0 : 1000 : 0"
       inkscape:vp_z="9600.0001 : 2966.3999 : 1"
       inkscape:persp3d-origin="4800 : 1977.5999 : 1"
       id="perspective2506" />
    <inkscape:path-effect
       end_linecap_type="zerowidth"
       miter_limit="4"
       linejoin_type="extrp_arc"
       start_linecap_type="zerowidth"
       interpolator_beta="0.2"
       interpolator_type="CubicBezierJohan"
       sort_points="true"
       offset_points="0,0.5"
       is_visible="true"
       id="path-effect3230"
       effect="powerstroke" />
    <inkscape:path-effect
       effect="powerstroke"
       id="path-effect3226"
       is_visible="true"
       offset_points="0,0.5"
       sort_points="true"
       interpolator_type="CubicBezierJohan"
       interpolator_beta="0.2"
       start_linecap_type="zerowidth"
       linejoin_type="extrp_arc"
       miter_limit="4"
       end_linecap_type="zerowidth" />
    <inkscape:path-effect
       end_linecap_type="zerowidth"
       miter_limit="4"
       linejoin_type="extrp_arc"
       start_linecap_type="zerowidth"
       interpolator_beta="0.2"
       interpolator_type="CubicBezierJohan"
       sort_points="true"
       offset_points="0,0.5"
       is_visible="true"
       id="path-effect3222"
       effect="powerstroke" />
    <inkscape:path-effect
       effect="powerstroke"
       id="path-effect3218"
       is_visible="true"
       offset_points="0,0.5"
       sort_points="true"
       interpolator_type="CubicBezierJohan"
       interpolator_beta="0.2"
       start_linecap_type="zerowidth"
       linejoin_type="extrp_arc"
       miter_limit="4"
       end_linecap_type="zerowidth" />
    <inkscape:path-effect
       effect="powerstroke"
       id="path-effect3214"
       is_visible="true"
       offset_points="0,0.5"
       sort_points="true"
       interpolator_type="CubicBezierJohan"
       interpolator_beta="0.2"
       start_linecap_type="zerowidth"
       linejoin_type="extrp_arc"
       miter_limit="4"
       end_linecap_type="zerowidth" />
    <inkscape:path-effect
       end_linecap_type="zerowidth"
       miter_limit="4"
       linejoin_type="extrp_arc"
       start_linecap_type="zerowidth"
       interpolator_beta="0.2"
       interpolator_type="CubicBezierJohan"
       sort_points="true"
       offset_points="0,0.5"
       is_visible="true"
       id="path-effect3210"
       effect="powerstroke" />
    <inkscape:path-effect
       end_linecap_type="zerowidth"
       miter_limit="4"
       linejoin_type="extrp_arc"
       start_linecap_type="zerowidth"
       interpolator_beta="0.2"
       interpolator_type="CubicBezierJohan"
       sort_points="true"
       offset_points="0,0.5"
       is_visible="true"
       id="path-effect3206"
       effect="powerstroke" />
    <inkscape:path-effect
       effect="powerstroke"
       id="path-effect3202"
       is_visible="true"
       offset_points="0,0.5"
       sort_points="true"
       interpolator_type="CubicBezierJohan"
       interpolator_beta="0.2"
       start_linecap_type="zerowidth"
       linejoin_type="extrp_arc"
       miter_limit="4"
       end_linecap_type="zerowidth" />
    <linearGradient
       id="linearGradient3081"
       osb:paint="solid">
      <stop
         style="stop-color:#017397;stop-opacity:1;"
         offset="0"
         id="stop3079" />
    </linearGradient>
  </defs>
  <sodipodi:namedview
     pagecolor="#ffffff"
     bordercolor="#666666"
     borderopacity="1"
     objecttolerance="10"
     gridtolerance="10"
     guidetolerance="10"
     inkscape:pageopacity="0"
     inkscape:pageshadow="2"
     inkscape:window-width="1920"
     inkscape:window-height="1010"
     id="namedview871"
     showgrid="true"
     inkscape:snap-grids="true"
     inkscape:snap-page="true"
     inkscape:snap-bbox="true"
     inkscape:object-paths="false"
     inkscape:zoom="0.12848253"
     inkscape:cx="2496.3857"
     inkscape:cy="2652.0164"
     inkscape:window-x="0"
     inkscape:window-y="34"
     inkscape:window-maximized="1"
     inkscape:current-layer="svg869"
     inkscape:object-nodes="true"
     inkscape:snap-nodes="true"
     inkscape:bbox-nodes="false"
     inkscape:snap-global="true"
     inkscape:snap-center="true"
     inkscape:snap-object-midpoints="false"
     inkscape:snap-bbox-midpoints="true"
     fit-margin-top="0"
     fit-margin-left="0"
     fit-margin-right="0"
     fit-margin-bottom="0" />
  <path
     style="opacity:1;fill:#e8d000;fill-opacity:1;stroke:none;stroke-width:0.5;stroke-miterlimit:4;stroke-dasharray:none;stroke-dashoffset:0;stroke-opacity:1;paint-order:fill markers stroke"
     d="m 2764.0947,1426.4273 c -81.854,-0.159 -163.7381,7.8638 -244.2441,24.5078 -256.747,53.079 -468.426,168.881 -653.332,357.416 -144.925,147.768 -242.9377,306.9513 -306.3906,497.6113 -118.9631,357.454 -75.5553,760.3437 116.0917,1077.5117 0.9912,1.6403 1.9954,3.2834 3,4.9258 L 3852.6904,2045.1948 c 85.5401,141.061 142.2301,294.7161 171.4141,464.4141 14.621,85.02 14.621,329.858 0,414.877 -13.212,76.826 -39.0528,176.5287 -61.9258,238.9277 -43.6,118.943 -137.7051,284.6757 -213.9531,376.8047 -79.005,95.46 -189.876,194.5463 -294.0801,262.8222 -166.645,109.1871 -386.4768,184.8469 -584.7734,201.2579 -307.248,25.43 -613.6423,-64.0326 -863.2793,-252.0586 -57.0541,-42.9733 -115.7748,-97.6784 -170.4863,-157.7168 -59.8654,-64.2111 -111.9869,-132.7661 -156.5391,-206.0293 l -376.1348,232.4511 c 6.9798,11.998 13.6505,23.1699 19.586,32.6309 48.2609,76.925 99.8641,145.8958 110.1133,147.1738 4.66,0.582 35.8556,-21.093 69.3242,-48.164 33.4687,-27.072 65.5502,-49.4401 71.291,-49.7071 5.7408,-0.266 16.7372,7.7126 24.4355,17.7286 43.2451,56.259 142.2265,152.1143 234.6914,227.2793 14.0794,11.445 25.7033,23.0804 25.8321,25.8574 0.1288,2.777 -22.2913,35.3811 -49.8242,72.4531 -40.0374,53.908 -48.8003,69.2293 -43.7637,76.5293 11.2227,16.266 111.1172,81.2416 187.3965,121.8926 84.3872,44.97 191.1876,93.3906 204.6152,92.7676 5.2264,-0.242 13.3795,-12.1728 19.4551,-28.4668 38.2232,-102.518 53.1721,-137.3902 59.0078,-137.6602 3.6561,-0.17 30.2838,7.7268 59.1719,17.5488 28.8881,9.822 80.4555,24.1044 114.5937,31.7364 70.0751,15.666 74.2056,16.3918 157.6387,27.7128 33.2669,4.514 62.9451,10.4476 65.9492,13.1856 3.2424,2.955 2.0543,39.8759 -2.9219,90.8809 -4.6109,47.246 -6.5911,87.5333 -4.4023,89.5273 5.0894,4.638 56.2283,10.0545 122.9805,13.0215 69.1337,3.074 243.8899,-9.7212 267.9492,-19.6172 18.1004,-7.447 18.7608,-8.8437 14.623,-30.9297 -2.383,-12.722 -8.721,-52.731 -14.084,-88.9102 -9.1064,-61.439 -9.0754,-66.3246 0.4766,-74.0136 5.6263,-4.527 18.043,-8.5961 27.5938,-9.0391 59.7267,-2.77 264.4564,-68.1075 351.791,-112.2715 18.8075,-9.51 37.8779,-16.072 42.3789,-14.58 4.501,1.492 25.1099,37.7075 45.7969,80.4785 20.6868,42.77 40.9576,78.8725 45.0488,80.2285 17.5036,5.801 247.4984,-140.904 314.0664,-200.332 l 16.2051,-14.4649 -56.4864,-68.0039 c -31.0662,-37.402 -58.0332,-71.5431 -59.9277,-75.8691 -2.124,-4.851 11.0806,-21.2583 34.4688,-42.8223 78.6571,-72.524 174.6338,-181.7985 227.2089,-258.6875 12.9597,-18.954 25.6947,-34.5587 28.2989,-34.6797 2.6042,-0.121 37.2681,21.7723 77.0293,48.6543 39.7612,26.882 75.6836,48.7195 79.8261,48.5273 21.8725,-1.0149 180.665,-319.6597 178.8457,-358.8847 -0.3535,-7.622 -24.8472,-17.903 -126.2715,-53 -22.1721,-7.671 -41.7991,-17.3421 -43.6152,-21.4903 -1.8161,-4.1468 5.7309,-40.0368 16.7715,-79.7558 30.476,-109.638 48.3352,-213.0161 53.5293,-309.8711 1.2755,-23.783 5.0001,-40.1687 9.5879,-42.1777 4.1268,-1.807 46.0044,-1.226 93.0625,1.291 47.0582,2.516 87.0879,2.8995 88.9531,0.8515 4.4334,-4.863 -10.4167,-325.0338 -15.2812,-329.4668 -2.0467,-1.866 -41.8691,2.2211 -88.4922,9.0821 -46.6232,6.862 -88.2668,11.3154 -92.543,9.8984 -4.7541,-1.576 -9.9817,-17.5454 -13.4531,-41.1074 -14.1372,-95.959 -41.4868,-197.2399 -81.9805,-303.5859 -14.6698,-38.527 -25.5458,-73.4533 -24.166,-77.6133 1.3787,-4.16 38.5548,-24.3531 82.6113,-44.8731 48.7405,-22.702 79.9573,-40.4567 79.7305,-45.3457 -0.8331,-17.962 -40.7683,-91.3332 -85.8535,-165.4082 l -368.959,228.0156 c -9.4779,-15.6109 -19.3032,-31.07 -29.4902,-46.3769 -55.085,-82.771 -81.9789,-116.4296 -147.5918,-184.7246 -237.6991,-247.413 -574.4251,-386.9173 -911.6661,-387.5703 z"
     id="path2399"
     inkscape:connector-curvature="0"
     inkscape:export-filename="/home/alxd/Downloads/Solarpunk_logo.png"
     inkscape:export-xdpi="27.738312"
     inkscape:export-ydpi="27.738312" />
  <path
     inkscape:transform-center-y="-1970.2619"
     inkscape:connector-curvature="0"
     id="path1008"
     d="m 2643.1312,299.53176 c -0.337,0 -0.686,0.02 -1.049,0.055 v 0 c -1.449,0.1378 -3.107,0.5442 -5.043,1.2539 -1.936,0.7098 -4.15,1.7218 -6.705,3.0742 -2.556,1.3523 -5.455,3.0436 -8.765,5.1094 -3.309,2.0657 -7.027,4.5055 -11.225,7.3554 -8.393,5.6996 -18.697,13.04 -31.443,22.3008 -7.212,5.2405 -14.293,10.7261 -21.202,16.4121 -6.909,5.6861 -13.646,11.5715 -20.171,17.6114 -6.527,6.0399 -12.843,12.2332 -18.909,18.5351 -6.066,6.302 -11.882,12.7133 -17.408,19.1856 -5.526,6.4722 -10.764,13.0056 -15.674,19.5566 -4.908,6.5509 -9.491,13.1186 -13.705,19.6563 -4.214,6.5379 -8.06,13.0474 -11.5,19.4804 -1.72,3.2164 -3.339,6.4131 -4.851,9.586 -1.511,3.1731 -2.915,6.3232 -4.209,9.4414 -3.148,7.5889 -5.972,14.6094 -8.496,21.209 -2.523,6.5995 -4.748,12.7766 -6.698,18.6777 -1.951,5.9012 -3.626,11.5258 -5.056,17.0195 -1.429,5.4936 -2.613,10.8573 -3.573,16.2344 -0.96,5.377 -1.698,10.7671 -2.242,16.3184 -0.543,5.5511 -0.888,11.2631 -1.066,17.2793 -0.177,6.0163 -0.183,12.337 -0.049,19.1093 0.136,6.7722 0.414,13.9954 0.812,21.8145 0.392,7.7146 0.885,15.0658 1.498,22.1152 0.613,7.0495 1.344,13.7978 2.208,20.3086 0.862,6.5108 1.859,12.7844 3.007,18.8828 1.146,6.0986 2.444,12.0215 3.907,17.834 1.462,5.8126 3.087,11.513 4.896,17.166 1.809,5.653 3.801,11.2591 5.988,16.8789 2.188,5.6199 4.573,11.2537 7.172,16.9668 2.599,5.71312 5.407,11.50472 8.449,17.43752 1.634,3.188 3.277,6.2097 5.018,9.1582 1.74,2.9485 3.579,5.8243 5.604,8.7246 2.025,2.9004 4.236,5.8254 6.722,8.8692 2.486,3.0438 5.245,6.2054 8.369,9.584 3.123,3.3787 6.61,6.974 10.549,10.8789 3.938,3.9049 8.329,8.1215 13.26,12.7441 9.861,9.2453 21.882,20.116 36.773,33.3809 10.307,9.1806 19.519,17.5009 27.762,25.1484 8.244,7.6475 15.517,14.6226 21.949,21.1113 6.432,6.4889 12.022,12.4927 16.895,18.1973 2.437,2.8523 4.695,5.6291 6.789,8.3555 2.095,2.7264 4.024,5.4015 5.807,8.0488 1.784,2.6474 3.417,5.2678 4.921,7.8828 1.503,2.6151 2.875,5.2258 4.131,7.8555 1.255,2.6297 2.397,5.2776 3.436,7.9687 1.039,2.691 1.979,5.4254 2.834,8.2246 0.854,2.7992 1.623,5.6631 2.324,8.6172 0.701,2.95412 1.335,5.99662 1.914,9.15242 1.159,6.3118 2.106,13.075 2.967,20.4746 0.639,5.4948 1.045,11.4491 1.236,17.7383 0.19,6.2893 0.162,12.9146 -0.06,19.7519 -0.226,6.8373 -0.651,13.8865 -1.26,21.0254 -0.61,7.1388 -1.401,14.3666 -2.361,21.5606 -0.959,7.1939 -2.087,14.3548 -3.364,21.3574 -1.277,7.0025 -2.705,13.8455 -4.267,20.4101 -1.561,6.5647 -3.255,12.8482 -5.069,18.7285 -1.812,5.8802 -3.743,11.3572 -5.775,16.3067 -1.462,3.5608 -3.76,8.0879 -6.658,13.2187 -2.897,5.1307 -6.396,10.8648 -10.264,16.8438 -3.867,5.9792 -8.101,12.2047 -12.471,18.3105 -4.369,6.1058 -8.874,12.0926 -13.279,17.6035 -4.405,5.5108 -8.563,10.9722 -12.312,16.125 -0.306,0.4202 -0.591,0.8244 -0.891,1.2403 a 1552,1552 0 0 1 252.248,-21.1817 1552,1552 0 0 1 220.563,17.6719 c -0.065,-3.4262 -0.195,-7.1682 -0.401,-11.334 -0.308,-6.2621 -0.781,-13.4058 -1.406,-21.5722 -1.258,-16.3325 -3.151,-36.7536 -5.68,-62.3868 -1.353,-13.7137 -2.689,-26.4221 -4.041,-38.289 -1.352,-11.8667 -2.721,-22.8935 -4.142,-33.2403 -1.421,-10.3467 -2.894,-20.0141 -4.454,-29.1679 -1.56,-9.1538 -3.206,-17.7924 -4.974,-26.0801 -1.768,-8.2876 -3.659,-16.2243 -5.705,-23.9727 -2.047,-7.7484 -4.25,-15.3097 -6.645,-22.84572 -2.395,-7.536 -4.98,-15.0466 -7.793,-22.6972 -2.812,-7.6506 -5.85,-15.4411 -9.15,-23.5332 -2.098,-5.1444 -4.186,-10.0913 -6.289,-14.8614 -2.104,-4.77 -4.222,-9.3614 -6.375,-13.8007 -2.152,-4.4394 -4.339,-8.7266 -6.584,-12.8789 -2.245,-4.1524 -4.547,-8.1709 -6.928,-12.0801 -2.38,-3.9092 -4.841,-7.7082 -7.4,-11.418 -2.561,-3.7097 -5.223,-7.3308 -8.008,-10.8848 -2.784,-3.5541 -5.689,-7.0403 -8.74,-10.4824 -3.051,-3.4421 -6.249,-6.8409 -9.61,-10.2148 -3.361,-3.3739 -6.888,-6.7247 -10.603,-10.0742 -3.716,-3.3495 -7.621,-6.6958 -11.733,-10.0645 -4.114,-3.3688 -8.438,-6.7596 -12.992,-10.1914 -4.555,-3.4318 -9.339,-6.9048 -14.379,-10.4434 -10.078,-7.0773 -21.17,-14.4124 -33.451,-22.1796 -12.279,-7.767 -25.745,-15.9666 -40.574,-24.77352 -21.047,-12.499 -37.725,-22.5257 -51.584,-31.2148 -6.93,-4.3444 -13.158,-8.3545 -18.873,-12.1719 -5.714,-3.8174 -10.919,-7.4416 -15.807,-11.0156 -4.888,-3.5739 -9.456,-7.0988 -13.904,-10.7129 -4.448,-3.614 -8.775,-7.3181 -13.172,-11.2559 -4.397,-3.9378 -8.865,-8.1073 -13.598,-12.6523 -4.734,-4.5451 -9.732,-9.4663 -15.189,-14.9024 -6.894,-6.8676 -13.787,-14.0545 -20.383,-21.2129 -6.595,-7.1586 -12.893,-14.2883 -18.6,-21.041 -5.707,-6.7528 -10.824,-13.1287 -15.056,-18.7793 -2.115,-2.8252 -4.009,-5.4695 -5.645,-7.8886 -1.636,-2.4191 -3.012,-4.6112 -4.095,-6.5371 -3.47,-6.172 -6.174,-11.2365 -8.311,-16.0743 -1.069,-2.4189 -1.997,-4.7819 -2.809,-7.1992 -0.812,-2.4173 -1.511,-4.8884 -2.117,-7.5254 -0.607,-2.637 -1.123,-5.4378 -1.576,-8.5156 -0.452,-3.0779 -0.84,-6.4318 -1.189,-10.1719 -0.697,-7.4803 -1.238,-16.5078 -1.826,-27.9648 -0.428,-8.2093 -0.626,-16.0475 -0.6,-23.5625 0.03,-7.5149 0.282,-14.7061 0.783,-21.6211 0.5,-6.9149 1.243,-13.5534 2.242,-19.9629 0.998,-6.4095 2.254,-12.5912 3.774,-18.5898 1.52,-5.9987 3.308,-11.8158 5.373,-17.4981 2.066,-5.6823 4.409,-11.229 7.043,-16.6894 2.635,-5.4606 5.562,-10.8329 8.789,-16.1661 3.227,-5.3332 6.755,-10.6292 10.599,-15.9297 7.001,-9.6525 12.592,-17.6156 16.932,-24.2304 2.17,-3.3074 4.028,-6.2762 5.592,-8.9512 1.564,-2.675 2.838,-5.0565 3.836,-7.1836 1,-2.1273 1.724,-4.0019 2.197,-5.666 0.474,-1.6641 0.693,-3.1167 0.68,-4.4023 -0.02,-1.2854 -0.259,-2.4047 -0.719,-3.3965 -0.46,-0.9917 -1.133,-1.8581 -1.998,-2.6407 -0.879,-0.7933 -1.833,-1.3869 -2.93,-1.75 -0.822,-0.2722 -1.726,-0.4148 -2.738,-0.4101 z"
     style="fill:#e8d000;stroke-width:4.79999971"
     inkscape:export-filename="/home/alxd/Downloads/Solarpunk_logo.png"
     inkscape:export-xdpi="27.738312"
     inkscape:export-ydpi="27.738312" />
  <path
     inkscape:transform-center-y="-1970.2619"
     inkscape:connector-curvature="0"
     id="path1010"
     d="m 3950.7873,619.79732 c -0.2864,-0.17765 -0.5935,-0.34462 -0.9204,-0.50623 v 0 c -1.304,-0.64672 -2.9272,-1.17536 -4.9465,-1.5928 -2.0193,-0.41736 -4.4342,-0.72446 -7.3183,-0.92205 -2.8848,-0.1982 -6.2399,-0.28913 -10.1416,-0.27847 -3.9009,0.0111 -8.3465,0.12451 -13.4161,0.33339 -10.1367,0.41916 -22.7622,1.2253 -38.4752,2.37608 -8.8911,0.65158 -17.8001,1.58049 -26.6685,2.77037 -8.8685,1.18996 -17.6959,2.63996 -26.4245,4.33299 -8.7304,1.69198 -17.3623,3.62554 -25.8391,5.78318 -8.4767,2.15771 -16.7987,4.5401 -24.9064,7.12719 -8.1076,2.587 -16.0027,5.37783 -23.6284,8.35651 -7.6239,2.97965 -14.9806,6.1449 -22.0078,9.47916 -7.0273,3.33444 -13.727,6.83873 -20.0413,10.49202 -3.1571,1.82657 -6.218,3.68963 -9.1754,5.58887 -2.9567,1.89994 -5.8103,3.83674 -8.5536,5.80442 -6.6755,4.78948 -12.776,9.26674 -18.3998,13.54446 -5.6228,4.27817 -10.7697,8.35448 -15.5375,12.34121 -4.7686,3.98629 -9.157,7.88302 -13.2681,11.79766 -4.1102,3.91508 -7.9437,7.84892 -11.594,11.91223 -3.6502,4.06322 -7.1186,8.2546 -10.5072,12.68523 -3.3876,4.43099 -6.6918,9.10308 -10.0144,14.1217 -3.3218,5.01924 -6.6588,10.38729 -10.1148,16.21294 -3.4543,5.8265 -7.0257,12.1112 -10.8092,18.9655 -3.7335,6.7624 -7.1896,13.2692 -10.3847,19.5828 -3.1951,6.3136 -6.1312,12.4336 -8.8291,18.4218 -2.6995,5.9871 -5.1593,11.8438 -7.3985,17.6313 -2.2409,5.7866 -4.2601,11.504 -6.0808,17.2145 -1.8217,5.7101 -3.4457,11.4108 -4.8883,17.1682 -1.4426,5.7574 -2.705,11.5714 -3.809,17.4999 -1.1031,5.929 -2.0461,11.9738 -2.8491,18.1987 -0.803,6.2249 -1.4698,12.6267 -2.0122,19.2718 -0.2919,3.5705 -0.4886,7.0043 -0.5634,10.4276 -0.076,3.4228 -0.029,6.836 0.1631,10.3681 0.1919,3.5322 0.5289,7.1833 1.037,11.0803 0.5081,3.897 1.186,8.0381 2.0598,12.5559 0.8728,4.5174 1.9408,9.4107 3.2296,14.8054 1.2881,5.39422 2.7967,11.29202 4.5503,17.81962 3.5061,13.0545 7.991,28.6289 13.6527,47.7508 3.9193,13.2347 7.3616,25.1611 10.335,36.0049 2.9744,10.8444 5.478,20.6056 7.5234,29.5101 2.0452,8.9047 3.6307,16.9533 4.7646,24.3697 0.5674,3.7085 1.0224,7.2584 1.3647,10.6791 0.3431,3.4212 0.5722,6.7113 0.6918,9.9008 0.1205,3.1901 0.1269,6.2777 0.026,9.2927 -0.1013,3.0145 -0.3116,5.9563 -0.6304,8.853 -0.3198,2.8962 -0.7451,5.7484 -1.2808,8.5829 -0.5356,2.8345 -1.1782,5.6536 -1.9272,8.483 -0.7498,2.8289 -1.606,5.668 -2.5675,8.5478 -0.9615,2.8799 -2.0266,5.7995 -3.1981,8.7865 -2.3423,5.9746 -5.1026,12.221 -8.2716,18.9629 -2.3535,5.0062 -5.1472,10.2801 -8.3001,15.7252 -3.1539,5.4447 -6.6701,11.06 -10.4629,16.7532 -3.7963,5.6911 -7.8733,11.4573 -12.154,17.2028 -4.2815,5.7449 -8.7637,11.47 -13.3717,17.0772 -4.6071,5.6078 -9.3404,11.0983 -14.1169,16.3759 -4.7764,5.2774 -9.5971,10.3397 -14.3849,15.0948 -4.787,4.7557 -9.5388,9.2023 -14.18,13.2431 -4.6395,4.0417 -9.1675,7.6781 -13.5033,10.8129 -3.1194,2.2552 -7.4586,4.8909 -12.6259,7.7233 -5.1664,2.8329 -11.1624,5.8612 -17.6011,8.9031 -6.438,3.0426 -13.3176,6.101 -20.2498,8.986 -6.9313,2.8855 -13.9154,5.5983 -20.5637,7.9593 -6.6482,2.3609 -13.0605,4.8101 -18.9625,7.2126 -0.4816,0.1958 -0.9368,0.389 -1.411,0.5843 a 1552,1552 0 0 1 225.5213,114.9691 1552,1552 0 0 1 178.1148,131.2838 c 1.7508,-2.9458 3.6129,-6.1942 5.6338,-9.8428 3.0392,-5.4838 6.403,-11.8037 10.1767,-19.0728 7.5404,-14.5422 16.6964,-32.8935 28.0595,-56.0093 6.0792,-12.3668 11.643,-23.8705 16.7495,-34.6674 5.1065,-10.7968 9.7557,-20.8888 14.0024,-30.4304 4.2465,-9.5415 8.0908,-18.5331 11.5905,-27.1342 3.4996,-8.601 6.6546,-16.8096 9.5209,-24.7843 2.8663,-7.9747 5.4431,-15.7159 7.7889,-23.3789 2.3449,-7.6635 4.4587,-15.2502 6.396,-22.9167 1.9372,-7.6664 3.6996,-15.4114 5.3421,-23.3956 1.6433,-7.9836 3.1683,-16.2053 4.6297,-24.8213 0.9289,-5.4776 1.7623,-10.782 2.4897,-15.9441 0.7265,-5.1626 1.3469,-10.1807 1.8575,-15.0881 0.5114,-4.9069 0.9129,-9.7029 1.1939,-14.4149 0.2812,-4.7121 0.4433,-9.3404 0.4806,-13.9174 0.038,-4.5766 -0.051,-9.1022 -0.2695,-13.6037 -0.2208,-4.5024 -0.5741,-8.9828 -1.0673,-13.471 -0.4923,-4.4877 -1.1232,-8.9815 -1.9015,-13.5149 -0.7782,-4.5333 -1.7042,-9.1073 -2.7818,-13.7461 -1.0776,-4.6388 -2.3085,-9.3454 -3.6998,-14.1501 -1.3921,-4.8051 -2.9465,-9.7072 -4.6651,-14.7375 -1.7202,-5.0313 -3.6072,-10.1921 -5.6681,-15.509 -2.0617,-5.3174 -4.2963,-10.7905 -6.7139,-16.4543 -4.8334,-11.3266 -10.3926,-23.4068 -16.7344,-36.481 -6.3402,-13.0729 -13.4611,-27.1392 -21.42,-42.44 -11.2967,-21.7161 -20.1839,-39.0281 -27.3807,-53.7176 -3.5989,-7.3448 -6.7775,-14.0355 -9.6217,-20.292 -2.8434,-6.256 -5.356,-12.0796 -7.6258,-17.6933 -2.2698,-5.6137 -4.2935,-11.01702 -6.1682,-16.43292 -1.8747,-5.4158 -3.5992,-10.8444 -5.2599,-16.5085 -1.6607,-5.6641 -3.2597,-11.5625 -4.8859,-17.9197 -1.6269,-6.3578 -3.28,-13.1743 -5.0517,-20.6704 -2.2382,-9.4701 -4.3073,-19.2109 -6.139,-28.7709 -1.8308,-9.5598 -3.4244,-18.9383 -4.7145,-27.685 -1.2901,-8.7468 -2.2774,-16.8623 -2.8951,-23.8949 -0.308,-3.5157 -0.5236,-6.7611 -0.6386,-9.6792 -0.1151,-2.9181 -0.1288,-5.5063 -0.034,-7.7138 0.3047,-7.074 0.6766,-12.8031 1.4108,-18.0406 0.3666,-2.6191 0.8236,-5.1163 1.4079,-7.5985 0.5842,-2.4822 1.2928,-4.9506 2.1679,-7.5109 0.8742,-2.5608 1.9121,-5.2129 3.1496,-8.0671 1.2384,-2.8538 2.6766,-5.9085 4.3516,-9.2707 3.3508,-6.724 7.6498,-14.6806 13.1895,-24.7265 3.9637,-7.20173 7.9273,-13.96686 11.9108,-20.33926 3.9868,-6.3702 7.9917,-12.34831 12.0626,-17.96046 4.07,-5.61258 8.2008,-10.86219 12.4284,-15.78226 4.2267,-4.92059 8.5526,-9.5116 13.0064,-13.80785 4.4538,-4.29634 9.0396,-8.29708 13.7897,-12.03726 4.751,-3.73965 9.6659,-7.21806 14.7826,-10.46973 5.1177,-3.25131 10.4369,-6.27366 15.9905,-9.10465 5.5535,-2.83099 11.3433,-5.4717 17.4039,-7.94965 11.0375,-4.51204 19.9863,-8.33172 27.1612,-11.66509 3.5875,-1.66668 6.7313,-3.21009 9.4705,-4.65882 2.7391,-1.44872 5.0771,-2.80091 7.0465,-4.08239 1.9711,-1.28061 3.5745,-2.49196 4.8537,-3.65675 1.28,-1.16426 2.2318,-2.28321 2.8985,-3.38254 0.6605,-1.10285 1.0475,-2.18 1.1794,-3.26529 0.1318,-1.08521 0.017,-2.17622 -0.3059,-3.29724 -0.3288,-1.13748 -0.8265,-2.1448 -1.5674,-3.03162 -0.555,-0.66462 -1.248,-1.26232 -2.1105,-1.79179 z"
     style="fill:#e8d000;stroke-width:4.79999971"
     inkscape:export-filename="/home/alxd/Downloads/Solarpunk_logo.png"
     inkscape:export-xdpi="27.738312"
     inkscape:export-ydpi="27.738312" />
  <path
     inkscape:transform-center-y="-1568.4922"
     inkscape:connector-curvature="0"
     id="path1012"
     d="m 1295.0093,764.22308 c -0.2802,0.18723 -0.5593,0.39771 -0.8417,0.62853 v 0 c -1.1283,0.91953 -2.2811,2.17851 -3.4965,3.84427 -1.2155,1.6657 -2.4941,3.7371 -3.8671,6.2811 -1.374,2.5444 -2.8449,5.5613 -4.4495,9.1178 -1.6037,3.5559 -3.3397,7.6501 -5.247,12.352 -3.8122,9.4018 -8.3017,21.2297 -13.7548,36.011 -3.0853,8.364 -5.9254,16.859 -8.5112,25.4252 -2.5858,8.5662 -4.9177,17.2026 -6.9876,25.8497 -2.0716,8.6481 -3.8824,17.3066 -5.4251,25.9165 -1.5427,8.61 -2.8168,17.1719 -3.8158,25.6235 -0.999,8.4515 -1.7246,16.7939 -2.1677,24.9687 -0.4415,8.1736 -0.6035,16.1807 -0.4753,23.9577 0.1284,7.7773 0.5468,15.3265 1.2604,22.58652 0.3568,3.6299 0.7866,7.1873 1.2922,10.6655 0.5064,3.4778 1.0891,6.8771 1.7454,10.1887 1.5986,8.0589 3.1508,15.4652 4.7186,22.3548 1.5686,6.889 3.1502,13.2613 4.8073,19.2513 1.6563,5.9906 3.3882,11.5978 5.2514,16.9602 1.8638,5.3617 3.8591,10.4793 6.0481,15.4836 2.1891,5.0041 4.5699,9.8959 7.2017,14.8139 2.6324,4.9173 5.5189,9.8584 8.7132,14.9596 3.1953,5.1008 6.7018,10.3597 10.5756,15.9163 3.8755,5.5553 8.1195,11.4068 12.7944,17.6872 4.6118,6.1966 9.1057,12.0352 13.5317,17.556 4.4262,5.5209 8.783,10.7259 13.1185,15.6595 4.3338,4.9347 8.6482,9.5972 12.9907,14.0301 4.341,4.4342 8.7108,8.6378 13.1564,12.6581 4.4449,4.0207 8.9629,7.8578 13.6076,11.5531 4.6447,3.6953 9.4155,7.25 14.3561,10.7078 4.9414,3.4572 10.0544,6.8166 15.3894,10.1231 5.335,3.3064 10.8873,6.5621 16.7126,9.805 3.1298,1.743 6.1747,3.3427 9.2603,4.8271 3.0848,1.4849 6.2116,2.8544 9.5066,4.1409 3.2951,1.2867 6.7585,2.4904 10.5166,3.6401 3.758,1.1498 7.8086,2.2458 12.283,3.3197 4.4738,1.0743 9.3706,2.1265 14.8151,3.185 5.4437,1.0591 11.4374,2.1256 18.1055,3.2298 13.3355,2.2089 29.37,4.5693 49.1209,7.3261 13.6704,1.9073 25.9525,3.7077 37.055,5.4869 11.1033,1.7787 21.0257,3.5378 29.9786,5.3597 8.953,1.8221 16.9364,3.7085 24.1575,5.7446 3.6108,1.0179 7.031,2.0721 10.2868,3.1757 3.2566,1.1031 6.3467,2.2557 9.3,3.4663 2.9541,1.2101 5.7677,2.4818 8.471,3.8205 2.7026,1.3394 5.2938,2.7479 7.799,4.2367 2.5045,1.4893 4.9251,3.0565 7.2841,4.7169 2.3589,1.6603 4.6595,3.4116 6.9256,5.2641 2.2652,1.8531 4.4956,3.8071 6.7197,5.8739 2.2241,2.0669 4.4414,4.2444 6.6761,6.5467 4.4703,4.6043 9.015,9.7016 13.8418,15.3759 3.584,4.2138 7.2295,8.9392 10.8824,14.0623 3.652,5.1239 7.3094,10.6483 10.9233,16.4567 3.6107,5.8106 7.1734,11.908 10.6331,18.1822 3.4589,6.2746 6.8166,12.7238 10.0151,19.2388 3.1992,6.5143 6.2395,13.0951 9.0681,19.6271 2.8285,6.5318 5.4428,13.015 7.7911,19.3411 2.3491,6.3257 4.4314,12.4914 6.19,18.3885 1.76,5.8959 3.1973,11.5227 4.2575,16.767 0.7626,3.773 1.3669,8.8138 1.8076,14.69 0.4417,5.8755 0.718,12.5872 0.8234,19.7075 0.1065,7.1199 0.045,14.6485 -0.1968,22.1531 -0.2407,7.5041 -0.6605,14.9847 -1.2615,22.0142 -0.6011,7.0294 -1.0243,13.8804 -1.2788,20.2476 -0.021,0.5194 -0.033,1.0138 -0.052,1.5262 a 1552,1552 0 0 1 197.9713,-157.7501 1552,1552 0 0 1 193.2112,-107.8413 c -1.9575,-2.8127 -4.1445,-5.8519 -6.6301,-9.2013 -3.735,-5.0356 -8.0971,-10.7127 -13.1536,-17.1556 -10.1196,-12.8813 -23.0388,-28.8094 -39.3822,-48.7178 -8.7437,-10.6509 -16.9149,-20.4755 -24.6317,-29.5915 -7.7168,-9.1158 -14.9811,-17.5238 -21.9108,-25.3375 -6.9298,-7.8136 -13.5254,-15.0335 -19.9079,-21.778 -6.3825,-6.7446 -12.5505,-13.0129 -18.6247,-18.9217 -6.0743,-5.9088 -12.0559,-11.4574 -18.0618,-16.7634 -6.0068,-5.3053 -12.0392,-10.3685 -18.2173,-15.304 -6.178,-4.9355 -12.5,-9.7443 -19.0892,-14.5428 -6.5885,-4.7991 -13.4427,-9.5889 -20.6821,-14.484 -4.6024,-3.1119 -9.0869,-6.0652 -13.4855,-8.8631 -4.3995,-2.7973 -8.7113,-5.4382 -12.9678,-7.9333 -4.2556,-2.4957 -8.4559,-4.8454 -12.6294,-7.0507 -4.1735,-2.2054 -8.3201,-4.2679 -12.4717,-6.1955 -4.1506,-1.9282 -8.3075,-3.7198 -12.4962,-5.3828 -4.1903,-1.6617 -8.4155,-3.1936 -12.7057,-4.6015 -4.2893,-1.4084 -8.6415,-2.6933 -13.0906,-3.8604 -4.448,-1.171 -8.9965,-2.2163 -13.6654,-3.1544 -4.669,-0.9381 -9.4632,-1.7648 -14.413,-2.4859 -4.9506,-0.7206 -10.0565,-1.3336 -15.3472,-1.8501 -5.2922,-0.5156 -10.7713,-0.9327 -16.4644,-1.2561 -5.6939,-0.323 -11.6012,-0.5529 -17.7577,-0.6952 -12.3115,-0.2857 -25.6093,-0.2225 -40.1358,0.1421 -14.5248,0.3635 -30.2768,1.0269 -47.4996,1.9425 -24.444,1.3001 -43.8818,2.2287 -60.2325,2.7033 -8.1758,0.2378 -15.5821,0.3635 -22.4548,0.3644 -6.8718,3e-4 -13.2131,-0.1215 -19.2629,-0.3776 -6.0498,-0.256 -11.8062,-0.6492 -17.5125,-1.1831 -5.7062,-0.5339 -11.3618,-1.2098 -17.2055,-2.0412 -5.8437,-0.8315 -11.8752,-1.8161 -18.3356,-2.9657 -6.4612,-1.1492 -13.351,-2.4644 -20.9084,-3.9527 -9.5475,-1.8802 -19.2716,-4.0265 -28.733,-6.3142 -9.4606,-2.2883 -18.6582,-4.7176 -27.155,-7.1616 -8.4968,-2.4443 -16.2936,-4.903 -22.9517,-7.2502 -3.3282,-1.1741 -6.372,-2.3206 -9.0763,-3.4231 -2.7042,-1.1026 -5.0661,-2.1608 -7.0366,-3.1604 -6.3141,-3.2042 -11.3761,-5.9129 -15.8406,-8.7482 -2.2326,-1.4175 -4.3171,-2.8666 -6.3352,-4.4255 -2.0181,-1.5588 -3.9722,-3.2251 -5.941,-5.081 -1.9697,-1.8555 -3.9547,-3.8976 -6.0413,-6.205 -2.0858,-2.30812 -4.2717,-4.88132 -6.6397,-7.79732 -4.7352,-5.8324 -10.2004,-13.038 -17.0543,-22.2376 -4.9166,-6.5881 -9.4358,-12.9954 -13.5892,-19.2584 -4.15,-6.2651 -7.9356,-12.3845 -11.3607,-18.4125 -3.4259,-6.0273 -6.4961,-11.9599 -9.2263,-17.8442 -2.731,-5.8838 -5.121,-11.7216 -7.1897,-17.5538 -2.0687,-5.8322 -3.8138,-11.6623 -5.2536,-17.5343 -1.439,-5.8725 -2.5723,-11.7861 -3.4158,-17.7896 -0.8427,-6.0043 -1.3937,-12.0974 -1.6733,-18.3246 -0.2798,-6.2272 -0.2885,-12.5908 -0.037,-19.1335 0.4586,-11.9153 0.6835,-21.6426 0.6172,-29.5538 -0.033,-3.9556 -0.1376,-7.4564 -0.3232,-10.5494 -0.1857,-3.0932 -0.4495,-5.7811 -0.8014,-8.1041 -0.3504,-2.3244 -0.7898,-4.2853 -1.321,-5.9317 -0.5304,-1.647 -1.1553,-2.97655 -1.8804,-4.03825 -0.7307,-1.05769 -1.5513,-1.85561 -2.4847,-2.42472 -0.9334,-0.56899 -1.9744,-0.91545 -3.1284,-1.08567 -1.1716,-0.17123 -2.2946,-0.13484 -3.4084,0.17271 -0.8348,0.23037 -1.6656,0.61397 -2.5045,1.18015 z"
     style="fill:#e8d000;stroke-width:4.79999971"
     inkscape:transform-center-x="1034.0057"
     inkscape:export-filename="/home/alxd/Downloads/Solarpunk_logo.png"
     inkscape:export-xdpi="27.738312"
     inkscape:export-ydpi="27.738312" />
  <path
     inkscape:transform-center-y="-1970.2619"
     inkscape:connector-curvature="0"
     id="path1014"
     d="m 309.02018,3138.0052 c 0.04,0.3346 0.1016,0.6787 0.1797,1.035 v 0 c 0.3096,1.4222 0.9109,3.0199 1.8464,4.8574 0.9356,1.8376 2.2044,3.9151 3.8519,6.2905 1.6475,2.3765 3.6725,5.0531 6.1183,8.0931 2.4456,3.039 5.3114,6.4395 8.6416,10.2677 6.6599,7.6533 15.1768,17.0083 25.8917,28.5589 6.0632,6.5355 12.3542,12.9117 18.8236,19.0932 6.4695,6.1816 13.1164,12.1686 19.8914,17.9267 6.7752,5.76 13.6776,11.2923 20.6579,16.5634 6.9805,5.2711 14.0397,10.281 21.1248,14.9956 7.0851,4.7147 14.1966,9.1361 21.2864,13.2298 7.0895,4.0916 14.1569,7.8586 21.1505,11.2629 6.9938,3.4041 13.9156,6.4463 20.7129,9.0946 3.3986,1.3241 6.7656,2.5503 10.0961,3.6731 3.3307,1.1218 6.6258,2.14 9.876,3.0529 7.9102,2.2205 15.2174,4.187 22.0709,5.9059 6.8533,1.7179 13.2517,3.1903 19.3433,4.4226 6.0917,1.2333 11.8759,2.2255 17.501,2.9901 5.6248,0.7636 11.0914,1.2995 16.5446,1.6113 5.4532,0.3119 10.8928,0.4018 16.4694,0.2798 5.5762,-0.1229 11.2886,-0.4616 17.2831,-1.0024 5.9944,-0.5418 12.2707,-1.2896 18.9787,-2.2304 6.7077,-0.9427 13.8461,-2.0802 21.562,-3.4079 7.6128,-1.3092 14.8527,-2.6755 21.7787,-4.1248 6.926,-1.4494 13.539,-2.98 19.9003,-4.6144 6.3615,-1.6323 12.4714,-3.3704 18.3894,-5.2375 5.9184,-1.8652 11.6442,-3.8603 17.2407,-6.0061 5.5968,-2.1448 11.0627,-4.4381 16.4596,-6.9083 5.3969,-2.4703 10.7254,-5.1167 16.0443,-7.9583 5.3188,-2.8427 10.6279,-5.8826 15.9903,-9.1444 5.3624,-3.2618 10.7777,-6.7405 16.3054,-10.4684 2.9704,-2.0025 5.7745,-3.9942 8.4944,-6.0744 2.7199,-2.0792 5.3558,-4.2481 7.9939,-6.6045 2.6382,-2.3565 5.2787,-4.9005 8.0042,-7.7318 2.7256,-2.8313 5.5356,-5.9477 8.5175,-9.4523 2.9821,-3.5037 6.1359,-7.3946 9.5432,-11.7712 3.4073,-4.3756 7.0701,-9.2381 11.0717,-14.6853 8.0032,-10.8932 17.3626,-24.1249 28.7569,-40.4916 7.8858,-11.3284 15.0481,-21.4669 21.6579,-30.5632 6.6097,-9.0972 12.6676,-17.1502 18.3429,-24.3101 5.6755,-7.16 10.9697,-13.4262 16.0524,-18.9447 2.5413,-2.7598 5.029,-5.3329 7.4862,-7.7371 2.4571,-2.4052 4.883,-4.6395 7.2988,-6.7255 2.4157,-2.087 4.8227,-4.0208 7.2396,-5.826 2.4172,-1.8041 4.8457,-3.4777 7.3068,-5.0384 2.4612,-1.5597 4.954,-3.0093 7.502,-4.3618 2.5479,-1.3526 5.1507,-2.612 7.8279,-3.7947 2.6774,-1.1818 5.4291,-2.2868 8.27862,-3.3351 2.8494,-1.0484 5.7945,-2.0407 8.8588,-2.9919 6.1285,-1.9035 12.7305,-3.6504 19.9746,-5.3877 5.3793,-1.2898 11.2427,-2.4031 17.4643,-3.3428 6.2217,-0.9387 12.8031,-1.7011 19.618,-2.2961 6.8155,-0.591 13.8651,-1.0098 21.0256,-1.2566 7.1606,-0.2457 14.4312,-0.3224 21.6883,-0.2272 7.257,0.094 14.5013,0.3601 21.6062,0.7928 7.1048,0.4327 14.0693,1.0344 20.7733,1.8024 6.704,0.7669 13.1447,1.6994 19.1994,2.7991 6.0543,1.0978 11.7225,2.3618 16.8791,3.789 3.7097,1.0269 8.4786,2.7686 13.9184,5.034 5.4396,2.2644 11.55,5.0546 17.9477,8.1819 6.3977,3.1263 13.0837,6.5876 19.6671,10.1982 6.5833,3.6096 13.0647,7.3684 19.0616,11.0847 5.9968,3.7163 11.9151,7.1933 17.4783,10.301 0.4537,0.2537 0.889,0.4885 1.3377,0.7367 a 1552,1552 0 0 1 -51.1146,-247.9213 1552,1552 0 0 1 -8.7595,-221.0964 c -3.394,0.4731 -7.0938,1.0485 -11.2053,1.7499 -6.1807,1.0526 -13.217,2.3742 -21.2505,3.9687 -16.0659,3.1969 -36.1155,7.5119 -61.2641,13.08 -13.4545,2.9789 -25.9129,5.821 -37.5338,8.5786 -11.6208,2.7577 -22.4056,5.432 -32.5091,8.0768 -10.1034,2.6449 -19.5261,5.2604 -28.4285,7.9009 -8.9024,2.6406 -17.283,5.3052 -25.3007,8.049 -8.01762,2.7438 -15.67212,5.5678 -23.12122,8.5233 -7.449,2.9565 -14.6936,6.0456 -21.8901,9.3223 -7.1966,3.2766 -14.3453,6.7389 -21.6058,10.4443 -7.2606,3.7044 -14.6332,7.6498 -22.274,11.8914 -4.8575,2.6965 -9.52,5.3596 -14.0053,8.0165 -4.485,2.6579 -8.791,5.3084 -12.9419,7.9754 -4.151,2.6661 -8.1468,5.3488 -12.0017,8.073 -3.855,2.7242 -7.5703,5.4891 -11.1676,8.3193 -3.5975,2.8292 -7.0758,5.7258 -10.454,8.7089 -3.3778,2.9852 -6.6555,6.0601 -9.852,9.2491 -3.1967,3.188 -6.3116,6.488 -9.3652,9.9277 -3.0537,3.4398 -6.0468,7.0203 -8.9958,10.7597 -2.949,3.7394 -5.8552,7.6409 -8.7377,11.7288 -2.8824,4.089 -5.7391,8.3652 -8.5934,12.8496 -2.8541,4.4864 -5.705,9.184 -8.5692,14.1148 -2.864,4.9317 -5.7417,10.0958 -8.6539,15.5218 -5.8249,10.8502 -11.7847,22.7378 -18.0318,35.8575 -6.2471,13.1177 -12.7822,27.4655 -19.7577,43.239 -9.8996,22.3875 -17.8657,40.1423 -24.8399,54.9386 -3.4869,7.3987 -6.7256,14.0605 -9.8341,20.19 -3.1087,6.1285 -6.0863,11.7286 -9.0518,17.008 -2.9654,5.2793 -5.9204,10.2351 -8.9782,15.0824 -3.0577,4.8473 -6.2193,9.5851 -9.6046,14.4204 -3.3853,4.8352 -6.9922,9.7686 -10.9402,15.0099 -3.9481,5.2423 -8.2381,10.7915 -12.9846,16.8579 -5.9964,7.6639 -12.3099,15.3648 -18.6305,22.7675 -6.321,7.4017 -12.6487,14.505 -18.6725,20.9766 -6.024,6.4717 -11.7441,12.3126 -16.8496,17.1883 -2.5528,2.4368 -4.9524,4.6327 -7.1591,6.5455 -2.2067,1.9129 -4.2191,3.5405 -6.0021,4.8454 -5.7141,4.1814 -10.4199,7.4701 -14.9683,10.1688 -2.2742,1.3499 -4.5096,2.5531 -6.8128,3.6476 -2.3032,1.0945 -4.6733,2.0832 -7.2192,2.9994 -2.5458,0.9171 -5.2651,1.7635 -8.2669,2.5803 -3.002,0.8159 -6.2857,1.6011 -9.9575,2.3937 -7.3438,1.5841 -16.2423,3.1979 -27.5474,5.1481 -8.0997,1.404 -15.8583,2.5355 -23.3228,3.4059 -7.4648,0.8665 -14.6347,1.4739 -21.5601,1.8012 -6.9252,0.3283 -13.6049,0.3823 -20.0878,0.1549 -6.4828,-0.2265 -12.7702,-0.7363 -18.9073,-1.53 -6.1371,-0.7937 -12.126,-1.8752 -18.014,-3.2477 -5.8881,-1.3736 -11.6747,-3.0384 -17.4102,-5.0023 -5.7359,-1.965 -11.419,-4.2304 -17.099,-6.7983 -5.68,-2.5679 -11.3589,-5.4391 -17.08,-8.6235 -10.4186,-5.7998 -18.9917,-10.4012 -26.0769,-13.9213 -3.5426,-1.7601 -6.7118,-3.2507 -9.5542,-4.4845 -2.8425,-1.2338 -5.3589,-2.2147 -7.5898,-2.9519 -2.2314,-0.7392 -4.179,-1.2344 -5.8876,-1.5056 -1.7088,-0.2721 -3.1771,-0.3163 -4.452,-0.1501 -1.2738,0.1732 -2.3567,0.544 -3.2865,1.119 -0.9298,0.5749 -1.7097,1.3465 -2.3836,2.2986 -0.6828,0.9674 -1.1584,1.9854 -1.388,3.1178 -0.1723,0.8486 -0.206,1.7632 -0.081,2.7674 z"
     style="fill:#e8d000;stroke-width:4.79999971"
     inkscape:export-filename="/home/alxd/Downloads/Solarpunk_logo.png"
     inkscape:export-xdpi="27.738312"
     inkscape:export-ydpi="27.738312" />
  <path
     style="fill:#e8d000;stroke-width:4.79999971"
     d="m 486.09958,1766.4636 c -0.1469,0.3033 -0.2811,0.6261 -0.4078,0.9681 v 0 c -0.5079,1.364 -0.8651,3.0333 -1.0706,5.085 -0.2075,2.0516 -0.2601,4.4854 -0.1571,7.3745 0.1024,2.8898 0.3603,6.2363 0.7761,10.1158 0.4161,3.8786 0.9906,8.2883 1.7248,13.3089 1.4694,10.0383 3.5822,22.512 6.3584,38.0204 1.5714,8.7754 3.4203,17.5397 5.5247,26.2367 2.1045,8.697 4.4632,17.326 7.0535,25.8317 2.5894,8.5075 5.4088,16.892 8.4351,25.0988 3.0263,8.2069 6.2599,16.2365 9.6749,24.0317 3.4149,7.7952 7.0105,15.3578 10.7649,22.633 3.7552,7.2733 7.6673,14.2614 11.7132,20.9045 4.0462,6.6431 8.2272,12.9426 12.5164,18.8434 2.1446,2.9504 4.3154,5.8012 6.5114,8.5454 2.1967,2.7435 4.4194,5.3806 6.6613,7.9048 5.4568,6.142 10.5433,11.7446 15.3819,16.8938 4.8389,5.1481 9.4277,9.844 13.8879,14.172 4.4599,4.3289 8.7912,8.2888 13.1116,11.9713 4.3208,3.6814 8.6314,7.0857 13.0518,10.2943 4.4203,3.2086 8.9492,6.223 13.7077,9.1331 4.7588,2.9092 9.7488,5.7104 15.0853,8.4939 5.337,2.7827 11.0226,5.5441 17.1755,8.3766 6.1538,2.8306 12.7754,5.73 19.9855,8.7813 7.1135,3.0112 13.9441,5.773 20.5552,8.2952 6.6114,2.5223 13.0031,4.8069 19.239,6.8684 6.2352,2.0632 12.3157,3.9016 18.3044,5.5277 5.988,1.6279 11.8841,3.0424 17.7529,4.2603 5.8683,1.2189 11.7069,2.2422 17.5829,3.0791 5.8761,0.837 11.7898,1.4889 17.8008,1.9713 6.0116,0.4814 12.1216,0.7917 18.3962,0.9439 6.2746,0.1523 12.7111,0.1508 19.3766,1e-4 3.5815,-0.08 7.0172,-0.2414 10.4298,-0.5224 3.4121,-0.2803 6.802,-0.6812 10.2951,-1.2389 3.4931,-0.5576 7.0895,-1.272 10.9126,-2.182 3.8233,-0.91 7.8715,-2.0142 12.2742,-3.3524 4.4024,-1.3372 9.1583,-2.9075 14.3901,-4.7496 5.2312,-1.8412 10.9405,-3.9542 17.2506,-6.376 12.6199,-4.8428 27.6444,-10.9208 46.075,-18.5374 12.7562,-5.2724 24.2606,-9.9345 34.7371,-14.0179 10.47702,-4.0844 19.92542,-7.5881 28.56932,-10.547 8.6442,-2.9589 16.4846,-5.3716 23.7432,-7.2695 3.6295,-0.9494 7.113,-1.7706 10.4796,-2.4662 3.3671,-0.6965 6.6157,-1.266 9.7754,-1.7162 3.1604,-0.4511 6.2306,-0.7781 9.2398,-0.9913 3.0087,-0.2123 5.9565,-0.3086 8.8706,-0.2922 2.9138,0.017 5.7947,0.1441 8.6695,0.3825 2.8747,0.2385 5.7458,0.5812 8.6373,1.0359 2.8914,0.4521 5.8041,1.0088 8.7682,1.6661 2.9642,0.6572 5.9786,1.4134 9.0711,2.2683 6.1855,1.7092 12.6847,3.8061 19.7193,6.2578 5.2235,1.821 10.759,4.0519 16.5021,6.6224 5.7428,2.5714 11.6929,5.4855 17.7491,8.6667 6.0544,3.1847 12.2129,6.641 18.3719,10.3019 6.1584,3.6618 12.318,7.5253 18.3734,11.5261 6.0557,3.9999 12.0082,8.1375 17.7532,12.3401 5.7449,4.2026 11.2804,8.4715 16.507,12.7397 5.227,4.2673 10.143,8.5316 14.6439,12.7281 4.5016,4.1948 8.5885,8.3207 12.1566,12.3076 2.567,2.8684 5.6391,6.9104 8.9927,11.7556 3.354,4.8443 6.9886,10.4935 10.6826,16.5815 3.6947,6.0872 7.4509,12.6121 11.0402,19.2071 3.5896,6.5942 7.013,13.2589 10.0516,19.626 3.0385,6.3672 6.1404,12.4905 9.1427,18.1112 0.2447,0.4585 0.4842,0.8913 0.7277,1.3426 a 1552,1552 0 0 1 90.9293,-236.2405 1552,1552 0 0 1 112.0786,-190.7845 c -3.1117,-1.4355 -6.5359,-2.9502 -10.3746,-4.5812 -5.7697,-2.4534 -12.4048,-5.1427 -20.0265,-8.1412 -15.2465,-5.9896 -34.4495,-13.1905 -58.6201,-22.0918 -12.9313,-4.7622 -24.9505,-9.1013 -36.2194,-13.0591 -11.2686,-3.9577 -21.7889,-7.5339 -31.7199,-10.7667 -9.9308,-3.2328 -19.2731,-6.1227 -28.191,-8.7103 -8.9179,-2.5875 -17.4098,-4.8731 -25.639,-6.8958 -8.2291,-2.0228 -16.1962,-3.7817 -24.0613,-5.3191 -7.8656,-1.5365 -15.6307,-2.851 -23.457,-3.9818 -7.8261,-1.1306 -15.7123,-2.0793 -23.8238,-2.8838 -8.1111,-0.8053 -16.4467,-1.4684 -25.168,-2.0272 -5.5444,-0.3552 -10.9066,-0.6332 -16.1164,-0.8206 -5.2101,-0.1865 -10.2655,-0.2825 -15.1994,-0.2807 -4.9334,9e-4 -9.7453,0.1 -14.4609,0.3093 -4.7158,0.2098 -9.336,0.5292 -13.8921,0.9673 -4.5558,0.4372 -9.0477,0.9954 -13.5021,1.6807 -4.4552,0.687 -8.8746,1.5038 -13.2873,2.4603 -4.4124,0.9556 -8.8165,2.0498 -13.2444,3.2946 -4.428,1.2447 -8.8812,2.6407 -13.383,4.1942 -4.5017,1.5534 -9.0551,3.2663 -13.6894,5.1491 -4.6346,1.8836 -9.3488,3.9386 -14.1733,6.1702 -4.8257,2.2334 -9.7625,4.6462 -14.8367,7.248 -5.0746,2.6027 -10.2859,5.3936 -15.6681,8.3862 -10.7635,5.9834 -22.2012,12.7669 -34.5461,20.4321 -12.3439,7.6635 -25.59472,16.2064 -39.98642,25.7113 -20.4256,13.4906 -36.7212,24.1274 -50.5838,32.8107 -6.9315,4.3421 -13.256,8.1983 -19.1833,11.6768 -5.927,3.4776 -11.4581,6.5814 -16.8058,9.4218 -5.3476,2.8405 -10.5116,5.4143 -15.7036,7.8413 -5.1918,2.4269 -10.412,4.7058 -15.873,6.9457 -5.461,2.2399 -11.1615,4.4427 -17.3155,6.7203 -6.1544,2.2783 -12.7625,4.6303 -20.0341,7.1708 -9.1864,3.2095 -18.6597,6.2789 -27.9779,9.0934 -9.318,2.8135 -18.4804,5.3724 -27.0458,7.5638 -8.5654,2.1913 -16.5345,4.0161 -23.465,5.3607 -3.4647,0.6714 -6.6702,1.2228 -9.5606,1.6403 -2.8904,0.4174 -5.4631,0.6999 -7.6685,0.8347 -7.0674,0.4315 -12.8042,0.6565 -18.0896,0.4702 -2.643,-0.093 -5.1742,-0.288 -7.7036,-0.6113 -2.5295,-0.3232 -5.0581,-0.7718 -7.6955,-1.3763 -2.6377,-0.6035 -5.3832,-1.3605 -8.3505,-2.2949 -2.967,-0.9353 -6.1544,-2.0486 -9.6725,-3.3653 -7.0356,-2.6345 -15.3956,-6.0841 -25.9624,-10.5507 -7.5744,-3.1944 -14.7145,-6.434 -21.4661,-9.7343 -6.7498,-3.3039 -13.1114,-6.6663 -19.1159,-10.1324 -6.0049,-3.4651 -11.6551,-7.0285 -16.9876,-10.7223 -5.3329,-3.693 -10.3482,-7.5188 -15.0838,-11.5024 -4.7356,-3.9835 -9.1908,-8.1291 -13.4041,-12.4652 -4.2128,-4.3369 -8.1828,-8.8641 -11.9482,-13.6155 -3.7652,-4.7523 -7.3235,-9.7289 -10.7158,-14.9585 -3.3924,-5.2296 -6.6201,-10.7139 -9.7139,-16.4844 -5.6338,-10.5092 -10.3621,-19.013 -14.4225,-25.8031 -2.0302,-3.395 -3.8917,-6.3616 -5.6171,-8.9354 -1.7252,-2.5739 -3.3129,-4.7589 -4.792,-6.5846 -1.4783,-1.8274 -2.8497,-3.2964 -4.141,-4.4477 -1.2909,-1.1522 -2.5026,-1.9826 -3.6652,-2.5315 -1.1655,-0.5426 -2.277,-0.8155 -3.3701,-0.834 -1.0931,-0.018 -2.1662,0.2094 -3.2477,0.6466 -1.0971,0.445 -2.0473,1.0448 -2.8525,1.8737 -0.6034,0.621 -1.1258,1.3723 -1.5629,2.2852 z"
     id="path969"
     inkscape:connector-curvature="0"
     inkscape:transform-center-y="-760.68065"
     inkscape:transform-center-x="1727.7355"
     inkscape:export-filename="/home/alxd/Downloads/Solarpunk_logo.png"
     inkscape:export-xdpi="27.738312"
     inkscape:export-ydpi="27.738312" />
</svg>
